<svg viewBox="0 0 680 680" xmlns="http://www.w3.org/2000/svg">
    <g fill="none" fill-rule="evenodd">
        <rect fill="#093071" transform="rotate(45 339.55 339.55)" x="89.55" y="89.55" width="500" height="500" rx="40"/>
        <g fill-rule="nonzero">
            <path d="M402.6 385.17c1.39 2.08 2.61 9.93-.83 12.55L231.02 528.39c-1.44 1.12-2.35 1.64-2.77 1.61-.59.03-.16-1 1.41-3.01l106.14-134.3c2.68-3.45 2.85-9.13.4-12.69l-59.25-85s124.28 88.09 125.65 90.17Z" fill="#FFCE00"/>
            <path d="m402.14 385-58.36-83.8c-2.47-3.56-2.27-9.26.39-12.64l106.17-134.54c1.57-2.01 1.98-3.02 1.42-3.02-.43 0-1.36.5-2.77 1.6l-170.8 130.88a8.3 8.3 0 0 0-1.74 11.23L402.14 385Z" fill="#FFDD6E"/>
        </g>
    </g>
</svg>
